<svg width="14" height="9" viewBox="0 0 14 9" fill="none" xmlns="http://www.w3.org/2000/svg">
<path d="M0.659372 1.64787L0.659377 1.64788L0.661272 1.64599L1.65033 0.661482C1.86769 0.445127 2.2161 0.447848 2.42655 0.659591L2.42844 0.661482L6.64726 4.8609L7 5.21202L7.35274 4.8609L11.5716 0.661482C11.7889 0.445127 12.1373 0.447848 12.3478 0.659596L12.3497 0.661482L13.3387 1.64599C13.5548 1.86109 13.5521 2.20392 13.3406 2.41214L13.3387 2.41403L7.38687 8.33852L7.38685 8.3385L7.38308 8.34233C7.17846 8.55044 6.83156 8.55594 6.61313 8.33852L0.661272 2.41403C0.445186 2.19893 0.447933 1.8561 0.659372 1.64787Z" fill="#CACACA" stroke="#CACACA"/>
</svg>
