<svg width="20" height="16" viewBox="0 0 20 16" fill="none" xmlns="http://www.w3.org/2000/svg">
<path d="M1.77648 8.95279L1.9092 8.65367L1.6882 8.41233C0.92864 7.58285 0.5 6.60208 0.5 5.55556C0.5 2.8763 3.37889 0.5 7.22222 0.5C11.0656 0.5 13.9444 2.8763 13.9444 5.55556C13.9444 8.23481 11.0656 10.6111 7.22222 10.6111C5.87375 10.6111 4.62586 10.3051 3.57677 9.79363L3.33671 9.67659L3.10595 9.81102C2.50333 10.1621 1.71207 10.4966 0.774044 10.5872C1.06359 10.2173 1.47662 9.62859 1.77648 8.95279ZM0.437619 10.9879C0.439888 10.9855 0.442576 10.9826 0.44567 10.9792C0.44311 10.9822 0.440454 10.9851 0.43771 10.988L0.437619 10.9879ZM18.3125 12.8561L18.0908 13.0972L18.2233 13.3967C18.5229 14.0742 18.9356 14.6622 19.2251 15.0316C18.2875 14.9409 17.4965 14.6064 16.8941 14.2555L16.6626 14.1206L16.4221 14.2386C15.3745 14.7527 14.1271 15.0556 12.7778 15.0556C10.3682 15.0556 8.29947 14.1018 7.11961 12.7216C7.1537 12.722 7.1879 12.7222 7.22222 12.7222C11.9687 12.7222 16.0326 9.62478 16.0555 5.58984C18.162 6.47915 19.5 8.16312 19.5 10C19.5 11.047 19.071 12.0309 18.3125 12.8561ZM19.555 15.4247C19.5535 15.423 19.552 15.4213 19.5505 15.4196C19.5522 15.4213 19.5537 15.423 19.5551 15.4246L19.555 15.4247Z" stroke="black"/>
</svg>
