<svg width="17" height="14" viewBox="0 0 17 14" fill="none" xmlns="http://www.w3.org/2000/svg">
<path d="M9.67648 1.92065L9.67684 1.92031C11.1043 0.534037 13.3864 0.34409 14.8804 1.54214C16.6124 2.9336 16.7 5.41319 15.1528 6.91602L15.1526 6.91617L8.72807 13.1597C8.60406 13.2801 8.3931 13.2801 8.2691 13.1597L1.84489 6.91649C1.84483 6.91643 1.84477 6.91637 1.84471 6.91632C1.84466 6.91627 1.84461 6.91622 1.84456 6.91617C0.300387 5.41333 0.388131 2.93366 2.11999 1.5422C3.61426 0.343847 5.89939 0.534425 7.32312 1.91979L7.32401 1.92065L7.97809 2.55501L8.50024 3.06141L9.02239 2.55501L9.67648 1.92065Z" stroke="white" stroke-width="1.5"/>
</svg>
