<svg width="20" height="20" viewBox="0 0 20 20" fill="none" xmlns="http://www.w3.org/2000/svg">
<path d="M0.5 10C0.5 4.75524 4.75374 0.5 10 0.5C15.2463 0.5 19.5 4.75524 19.5 10C19.5 15.2479 15.2464 19.5 10 19.5C4.75363 19.5 0.5 15.2479 0.5 10ZM12.1935 6.12903C12.1935 4.91757 11.2115 3.93548 10 3.93548C8.78854 3.93548 7.80645 4.91757 7.80645 6.12903C7.80645 7.09701 8.43344 7.91854 9.30345 8.20968H8.22581C7.68245 8.20968 7.24194 8.65019 7.24194 9.19355V10.1613C7.24194 10.6993 7.67376 11.1364 8.20968 11.145V12.7259C7.67376 12.7346 7.24194 13.1717 7.24194 13.7097V14.6774C7.24194 15.2208 7.68245 15.6613 8.22581 15.6613H11.7742C12.3176 15.6613 12.7581 15.2208 12.7581 14.6774V13.7097C12.7581 13.1717 12.3262 12.7346 11.7903 12.7259V9.19355C11.7903 8.65019 11.3498 8.20968 10.8065 8.20968H10.6966C11.5666 7.91854 12.1935 7.09701 12.1935 6.12903Z" stroke="black"/>
</svg>
