<svg width="67" height="28" viewBox="0 0 67 28" fill="none" xmlns="http://www.w3.org/2000/svg">
<path d="M5.01957 16.0001H0V0.313965H5.01957L14.5303 9.23031L24.1567 0.313965H29.1763C29.1763 0.313965 29.2313 10.7714 29.1763 16.0001H24.1567L24.2723 6.91866L14.5303 15.5048L5.01957 6.90215V16.0001Z" fill="black"/>
<path d="M57.7251 0.313965H32.6272V4.70609H47.9996L32.6272 12.4054V16.0001L57.7251 15.6864V11.608H42.0389L57.7251 3.76492V0.313965Z" fill="black"/>
<path d="M66.3291 0.313965H61.4897V16.0001H66.3291V0.313965Z" fill="black"/>
<path d="M1.9848 21.1226H9.7949V22.8653H2.37208C2.04935 22.8653 2.04935 23.4462 2.37208 23.4462H8.31034C10.8535 23.4462 10.7308 27.2545 8.31034 27.2545H0.500234V25.5375L7.85852 25.5763C8.18125 25.5763 8.18125 24.9308 7.85852 24.9308H1.9848C-0.6616 24.9953 -0.661599 21.1226 1.9848 21.1226Z" fill="black"/>
<path d="M58.8127 21H66.6228V22.7428H59.2C58.8772 22.7428 58.8772 23.3237 59.2 23.3237H65.1382C67.6813 23.3237 67.5587 27.1319 65.1382 27.1319H57.3281V25.415L64.6864 25.4537C65.0091 25.4537 65.0091 24.8082 64.6864 24.8082H58.8127C56.1663 24.8728 56.1663 21 58.8127 21Z" fill="black"/>
<path d="M45.1309 22.8448V21.1841H55.6062V22.8448H51.4544V27.2521L49.4104 27.1882V22.8448H45.1309Z" fill="black"/>
<path fill-rule="evenodd" clip-rule="evenodd" d="M11.405 21.1221V27.254H13.3672V25.4144H19.3765C21.8293 25.4144 21.8293 21.1221 19.3442 21.1221H11.405ZM13.306 22.8391V23.6363H18.5794C19.0086 23.6363 18.9473 22.8391 18.5794 22.8391H13.306Z" fill="black"/>
<path fill-rule="evenodd" clip-rule="evenodd" d="M34.2161 21.061V27.1291H36.1323V25.2767H39.3899L41.9448 27.1291H45.1385L42.0726 25.2767C44.4998 25.2767 44.4998 21.061 42.0726 21.061H34.2161ZM36.1169 22.7165V23.5137H41.3904C41.8196 23.5137 41.7583 22.7165 41.3904 22.7165H36.1169Z" fill="black"/>
<path fill-rule="evenodd" clip-rule="evenodd" d="M25.1133 21H29.9809C34.0899 21 33.9635 27.1319 29.9809 27.1319H25.1133C20.9411 27.1319 20.8146 21 25.1133 21ZM25.1405 22.6556H29.4329C31.1498 22.6556 31.1498 25.4149 29.4329 25.4149H25.1405C23.5462 25.4149 23.3623 22.6556 25.1405 22.6556Z" fill="black"/>
</svg>
