<svg width="253" height="16" viewBox="0 0 253 16" fill="none" xmlns="http://www.w3.org/2000/svg">
<path d="M5.01957 16.0001H0V0.313965H5.01957L14.5303 9.23031L24.1567 0.313965H29.1763C29.1763 0.313965 29.2313 10.7714 29.1763 16.0001H24.1567L24.2723 6.91866L14.5303 15.5048L5.01957 6.90215V16.0001Z" fill="black"/>
<path d="M57.7251 0.313965H32.6272V4.70609H47.9996L32.6272 12.4054V16.0001L57.7251 15.6864V11.608H42.0389L57.7251 3.76492V0.313965Z" fill="black"/>
<path d="M66.3291 0.313965H61.4897V16.0001H66.3291V0.313965Z" fill="black"/>
<path d="M85.7043 0.313477H105.684V4.77165H86.695C85.8694 4.77165 85.8694 6.25771 86.695 6.25771H101.886C108.391 6.25771 108.078 15.9996 101.886 15.9996H81.9066V11.6075L100.73 11.7066C101.556 11.7066 101.556 10.0554 100.73 10.0554H85.7043C78.9345 10.2205 78.9345 0.313477 85.7043 0.313477Z" fill="black"/>
<path d="M231.077 0H251.057V4.45817H232.068C231.242 4.45817 231.242 5.94423 232.068 5.94423H247.259C253.765 5.94423 253.451 15.6862 247.259 15.6862H227.28V11.294L246.103 11.3931C246.929 11.3931 246.929 9.74193 246.103 9.74193H231.077C224.308 9.90705 224.308 0 231.077 0Z" fill="black"/>
<path d="M196.077 4.71904V0.470703H222.874V4.71904H212.253V15.9935L207.025 15.8301V4.71904H196.077Z" fill="black"/>
<path fill-rule="evenodd" clip-rule="evenodd" d="M109.803 0.313965V16.0001H114.823V11.2943H130.195C136.469 11.2943 136.469 0.313965 130.112 0.313965H109.803ZM114.666 4.7062V6.7454H128.156C129.254 6.7454 129.097 4.7062 128.156 4.7062H114.666Z" fill="black"/>
<path fill-rule="evenodd" clip-rule="evenodd" d="M168.156 0.156738V15.6795H173.058V10.941H181.391L187.927 15.6795H196.097L188.254 10.941C194.463 10.941 194.463 0.156738 188.254 0.156738H168.156ZM173.019 4.39199V6.4312H186.509C187.607 6.4312 187.45 4.39199 186.509 4.39199H173.019Z" fill="black"/>
<path fill-rule="evenodd" clip-rule="evenodd" d="M144.87 0H157.322C167.833 0 167.51 15.6862 157.322 15.6862H144.87C134.197 15.6862 133.874 0 144.87 0ZM144.94 4.23533H155.92C160.312 4.23533 160.312 11.2941 155.92 11.2941H144.94C140.862 11.2941 140.391 4.23533 144.94 4.23533Z" fill="black"/>
</svg>
