<svg width="253" height="16" viewBox="0 0 253 16" fill="none" xmlns="http://www.w3.org/2000/svg">
<mask id="mask0_85_56" style="mask-type:alpha" maskUnits="userSpaceOnUse" x="0" y="0" width="253" height="16">
<path d="M5.01957 16.0001H0V0.313965H5.01957L14.5303 9.23031L24.1567 0.313965H29.1763C29.1763 0.313965 29.2313 10.7714 29.1763 16.0001H24.1567L24.2723 6.91866L14.5303 15.5048L5.01957 6.90215V16.0001Z" fill="url(#paint0_linear_85_56)"/>
<path d="M57.725 0.313965H32.6271V4.70609H47.9996L32.6271 12.4054V16.0001L57.725 15.6864V11.608H42.0388L57.725 3.76492V0.313965Z" fill="url(#paint1_linear_85_56)"/>
<path d="M66.329 0.313965H61.4897V16.0001H66.329V0.313965Z" fill="url(#paint2_linear_85_56)"/>
<path d="M85.7042 0.313477H105.683V4.77165H86.6949C85.8693 4.77165 85.8693 6.25771 86.6949 6.25771H101.886C108.391 6.25771 108.078 15.9996 101.886 15.9996H81.9065V11.6075L100.73 11.7066C101.555 11.7066 101.555 10.0554 100.73 10.0554H85.7042C78.9344 10.2205 78.9344 0.313477 85.7042 0.313477Z" fill="url(#paint3_linear_85_56)"/>
<path d="M231.077 0H251.057V4.45817H232.068C231.242 4.45817 231.242 5.94423 232.068 5.94423H247.259C253.765 5.94423 253.451 15.6862 247.259 15.6862H227.28V11.294L246.103 11.3931C246.929 11.3931 246.929 9.74193 246.103 9.74193H231.077C224.308 9.90705 224.308 0 231.077 0Z" fill="url(#paint4_linear_85_56)"/>
<path d="M196.077 4.71904V0.470703H222.874V4.71904H212.253V15.9935L207.025 15.8301V4.71904H196.077Z" fill="url(#paint5_linear_85_56)"/>
<path fill-rule="evenodd" clip-rule="evenodd" d="M109.803 0.313965V16.0001H114.823V11.2943H130.195C136.47 11.2943 136.47 0.313965 130.113 0.313965H109.803ZM114.666 4.7062V6.7454H128.156C129.254 6.7454 129.097 4.7062 128.156 4.7062H114.666Z" fill="url(#paint6_linear_85_56)"/>
<path fill-rule="evenodd" clip-rule="evenodd" d="M168.156 0.156738V15.6795H173.058V10.941H181.391L187.927 15.6795H196.097L188.254 10.941C194.463 10.941 194.463 0.156738 188.254 0.156738H168.156ZM173.019 4.39199V6.4312H186.509C187.607 6.4312 187.45 4.39199 186.509 4.39199H173.019Z" fill="url(#paint7_linear_85_56)"/>
<path fill-rule="evenodd" clip-rule="evenodd" d="M144.87 0H157.322C167.833 0 167.51 15.6862 157.322 15.6862H144.87C134.197 15.6862 133.874 0 144.87 0ZM144.94 4.23533H155.92C160.312 4.23533 160.312 11.2941 155.92 11.2941H144.94C140.862 11.2941 140.391 4.23533 144.94 4.23533Z" fill="url(#paint8_linear_85_56)"/>
</mask>
<g mask="url(#mask0_85_56)">
<rect x="-14" y="-70" width="280" height="163" fill="url(#paint9_linear_85_56)"/>
</g>
<defs>
<linearGradient id="paint0_linear_85_56" x1="14.6004" y1="0.313944" x2="35.075" y2="3.52854" gradientUnits="userSpaceOnUse">
<stop offset="0.222537" stop-color="#3EA410"/>
<stop offset="0.536458" stop-color="white"/>
<stop offset="0.944594" stop-color="white"/>
</linearGradient>
<linearGradient id="paint1_linear_85_56" x1="45.1761" y1="0.313944" x2="62.8852" y2="2.70368" gradientUnits="userSpaceOnUse">
<stop offset="0.222537" stop-color="#3EA410"/>
<stop offset="0.536458" stop-color="white"/>
<stop offset="0.944594" stop-color="white"/>
</linearGradient>
<linearGradient id="paint2_linear_85_56" x1="63.9094" y1="0.313944" x2="67.3839" y2="0.404349" gradientUnits="userSpaceOnUse">
<stop offset="0.222537" stop-color="#3EA410"/>
<stop offset="0.536458" stop-color="white"/>
<stop offset="0.944594" stop-color="white"/>
</linearGradient>
<linearGradient id="paint3_linear_85_56" x1="93.6374" y1="0.313455" x2="111.973" y2="2.87882" gradientUnits="userSpaceOnUse">
<stop offset="0.222537" stop-color="#3EA410"/>
<stop offset="0.536458" stop-color="white"/>
<stop offset="0.944594" stop-color="white"/>
</linearGradient>
<linearGradient id="paint4_linear_85_56" x1="239.011" y1="-2.12879e-05" x2="257.347" y2="2.56535" gradientUnits="userSpaceOnUse">
<stop offset="0.222537" stop-color="#3EA410"/>
<stop offset="0.536458" stop-color="white"/>
<stop offset="0.944594" stop-color="white"/>
</linearGradient>
<linearGradient id="paint5_linear_85_56" x1="209.476" y1="0.470682" x2="228.328" y2="3.21561" gradientUnits="userSpaceOnUse">
<stop offset="0.222537" stop-color="#3EA410"/>
<stop offset="0.536458" stop-color="white"/>
<stop offset="0.944594" stop-color="white"/>
</linearGradient>
<linearGradient id="paint6_linear_85_56" x1="122.347" y1="0.313944" x2="140.049" y2="2.70176" gradientUnits="userSpaceOnUse">
<stop offset="0.222537" stop-color="#3EA410"/>
<stop offset="0.536458" stop-color="white"/>
<stop offset="0.944594" stop-color="white"/>
</linearGradient>
<linearGradient id="paint7_linear_85_56" x1="182.126" y1="0.156717" x2="201.748" y2="3.13558" gradientUnits="userSpaceOnUse">
<stop offset="0.222537" stop-color="#3EA410"/>
<stop offset="0.536458" stop-color="white"/>
<stop offset="0.944594" stop-color="white"/>
</linearGradient>
<linearGradient id="paint8_linear_85_56" x1="150.914" y1="-2.12879e-05" x2="170.814" y2="3.03234" gradientUnits="userSpaceOnUse">
<stop offset="0.222537" stop-color="#3EA410"/>
<stop offset="0.536458" stop-color="white"/>
<stop offset="0.944594" stop-color="white"/>
</linearGradient>
<linearGradient id="paint9_linear_85_56" x1="-14" y1="-70" x2="266" y2="93" gradientUnits="userSpaceOnUse">
<stop offset="0.461611" stop-color="#3EA410"/>
<stop offset="0.47286" stop-color="white"/>
</linearGradient>
</defs>
</svg>
