<svg width="253" height="35" viewBox="0 0 253 35" fill="none" xmlns="http://www.w3.org/2000/svg">
<path d="M45.432 32.056C45.0587 32.056 44.7227 31.992 44.424 31.864C44.1253 31.7307 43.8907 31.544 43.72 31.304C43.5493 31.064 43.464 30.784 43.464 30.464H44.44C44.4613 30.704 44.5547 30.9013 44.72 31.056C44.8907 31.2107 45.128 31.288 45.432 31.288C45.7467 31.288 45.992 31.2133 46.168 31.064C46.344 30.9093 46.432 30.712 46.432 30.472C46.432 30.2853 46.376 30.1333 46.264 30.016C46.1573 29.8987 46.0213 29.808 45.856 29.744C45.696 29.68 45.472 29.6107 45.184 29.536C44.8213 29.44 44.5253 29.344 44.296 29.248C44.072 29.1467 43.88 28.992 43.72 28.784C43.56 28.576 43.48 28.2987 43.48 27.952C43.48 27.632 43.56 27.352 43.72 27.112C43.88 26.872 44.104 26.688 44.392 26.56C44.68 26.432 45.0133 26.368 45.392 26.368C45.9307 26.368 46.3707 26.504 46.712 26.776C47.0587 27.0427 47.2507 27.4107 47.288 27.88H46.28C46.264 27.6773 46.168 27.504 45.992 27.36C45.816 27.216 45.584 27.144 45.296 27.144C45.0347 27.144 44.8213 27.2107 44.656 27.344C44.4907 27.4773 44.408 27.6693 44.408 27.92C44.408 28.0907 44.4587 28.232 44.56 28.344C44.6667 28.4507 44.8 28.536 44.96 28.6C45.12 28.664 45.3387 28.7333 45.616 28.808C45.984 28.9093 46.2827 29.0107 46.512 29.112C46.7467 29.2133 46.944 29.3707 47.104 29.584C47.2693 29.792 47.352 30.072 47.352 30.424C47.352 30.7067 47.2747 30.9733 47.12 31.224C46.9707 31.4747 46.7493 31.6773 46.456 31.832C46.168 31.9813 45.8267 32.056 45.432 32.056ZM55.5161 28.096C55.5161 28.3787 55.4495 28.6453 55.3161 28.896C55.1828 29.1467 54.9695 29.352 54.6761 29.512C54.3828 29.6667 54.0068 29.744 53.5481 29.744H52.5401V32H51.6281V26.44H53.5481C53.9748 26.44 54.3348 26.5147 54.6281 26.664C54.9268 26.808 55.1481 27.0053 55.2921 27.256C55.4415 27.5067 55.5161 27.7867 55.5161 28.096ZM53.5481 29C53.8948 29 54.1535 28.9227 54.3241 28.768C54.4948 28.608 54.5801 28.384 54.5801 28.096C54.5801 27.488 54.2361 27.184 53.5481 27.184H52.5401V29H53.5481ZM62.1219 32.056C61.6046 32.056 61.1273 31.936 60.6899 31.696C60.2579 31.4507 59.9139 31.112 59.6579 30.68C59.4073 30.2427 59.2819 29.752 59.2819 29.208C59.2819 28.664 59.4073 28.176 59.6579 27.744C59.9139 27.312 60.2579 26.976 60.6899 26.736C61.1273 26.4907 61.6046 26.368 62.1219 26.368C62.6446 26.368 63.1219 26.4907 63.5539 26.736C63.9913 26.976 64.3353 27.312 64.5859 27.744C64.8366 28.176 64.9619 28.664 64.9619 29.208C64.9619 29.752 64.8366 30.2427 64.5859 30.68C64.3353 31.112 63.9913 31.4507 63.5539 31.696C63.1219 31.936 62.6446 32.056 62.1219 32.056ZM62.1219 31.264C62.4899 31.264 62.8179 31.1813 63.1059 31.016C63.3939 30.8453 63.6179 30.6053 63.7779 30.296C63.9433 29.9813 64.0259 29.6187 64.0259 29.208C64.0259 28.7973 63.9433 28.4373 63.7779 28.128C63.6179 27.8187 63.3939 27.5813 63.1059 27.416C62.8179 27.2507 62.4899 27.168 62.1219 27.168C61.7539 27.168 61.4259 27.2507 61.1379 27.416C60.8499 27.5813 60.6233 27.8187 60.4579 28.128C60.2979 28.4373 60.2179 28.7973 60.2179 29.208C60.2179 29.6187 60.2979 29.9813 60.4579 30.296C60.6233 30.6053 60.8499 30.8453 61.1379 31.016C61.4259 31.1813 61.7539 31.264 62.1219 31.264ZM71.9474 32L70.6674 29.776H69.9714V32H69.0594V26.44H70.9794C71.406 26.44 71.766 26.5147 72.0594 26.664C72.358 26.8133 72.5794 27.0133 72.7234 27.264C72.8727 27.5147 72.9474 27.7947 72.9474 28.104C72.9474 28.4667 72.8407 28.7973 72.6274 29.096C72.4194 29.3893 72.0967 29.5893 71.6594 29.696L73.0354 32H71.9474ZM69.9714 29.048H70.9794C71.3207 29.048 71.5767 28.9627 71.7474 28.792C71.9234 28.6213 72.0114 28.392 72.0114 28.104C72.0114 27.816 71.926 27.592 71.7554 27.432C71.5847 27.2667 71.326 27.184 70.9794 27.184H69.9714V29.048ZM80.9061 26.44V27.184H79.4261V32H78.5141V27.184H77.0261V26.44H80.9061ZM94.8758 32H93.9638L91.2198 27.848V32H90.3078V26.432H91.2198L93.9638 30.576V26.432H94.8758V32ZM100.185 27.176V28.808H102.105V29.552H100.185V31.256H102.345V32H99.2734V26.432H102.345V27.176H100.185ZM113.909 26.44L112.261 32H111.229L110.061 27.792L108.821 32L107.797 32.008L106.221 26.44H107.189L108.341 30.968L109.589 26.44H110.613L111.773 30.944L112.933 26.44H113.909ZM119.693 32.056C119.32 32.056 118.984 31.992 118.685 31.864C118.386 31.7307 118.152 31.544 117.981 31.304C117.81 31.064 117.725 30.784 117.725 30.464H118.701C118.722 30.704 118.816 30.9013 118.981 31.056C119.152 31.2107 119.389 31.288 119.693 31.288C120.008 31.288 120.253 31.2133 120.429 31.064C120.605 30.9093 120.693 30.712 120.693 30.472C120.693 30.2853 120.637 30.1333 120.525 30.016C120.418 29.8987 120.282 29.808 120.117 29.744C119.957 29.68 119.733 29.6107 119.445 29.536C119.082 29.44 118.786 29.344 118.557 29.248C118.333 29.1467 118.141 28.992 117.981 28.784C117.821 28.576 117.741 28.2987 117.741 27.952C117.741 27.632 117.821 27.352 117.981 27.112C118.141 26.872 118.365 26.688 118.653 26.56C118.941 26.432 119.274 26.368 119.653 26.368C120.192 26.368 120.632 26.504 120.973 26.776C121.32 27.0427 121.512 27.4107 121.549 27.88H120.541C120.525 27.6773 120.429 27.504 120.253 27.36C120.077 27.216 119.845 27.144 119.557 27.144C119.296 27.144 119.082 27.2107 118.917 27.344C118.752 27.4773 118.669 27.6693 118.669 27.92C118.669 28.0907 118.72 28.232 118.821 28.344C118.928 28.4507 119.061 28.536 119.221 28.6C119.381 28.664 119.6 28.7333 119.877 28.808C120.245 28.9093 120.544 29.0107 120.773 29.112C121.008 29.2133 121.205 29.3707 121.365 29.584C121.53 29.792 121.613 30.072 121.613 30.424C121.613 30.7067 121.536 30.9733 121.381 31.224C121.232 31.4747 121.01 31.6773 120.717 31.832C120.429 31.9813 120.088 32.056 119.693 32.056ZM132.079 26.44V32H131.167V26.44H132.079ZM141.045 32H140.133L137.389 27.848V32H136.477V26.432H137.389L140.133 30.576V26.432H141.045V32ZM154.608 28.096C154.608 28.3787 154.542 28.6453 154.408 28.896C154.275 29.1467 154.062 29.352 153.768 29.512C153.475 29.6667 153.099 29.744 152.64 29.744H151.632V32H150.72V26.44H152.64C153.067 26.44 153.427 26.5147 153.72 26.664C154.019 26.808 154.24 27.0053 154.384 27.256C154.534 27.5067 154.608 27.7867 154.608 28.096ZM152.64 29C152.987 29 153.246 28.9227 153.416 28.768C153.587 28.608 153.672 28.384 153.672 28.096C153.672 27.488 153.328 27.184 152.64 27.184H151.632V29H152.64ZM161.566 32L160.286 29.776H159.59V32H158.678V26.44H160.598C161.025 26.44 161.385 26.5147 161.678 26.664C161.977 26.8133 162.198 27.0133 162.342 27.264C162.491 27.5147 162.566 27.7947 162.566 28.104C162.566 28.4667 162.459 28.7973 162.246 29.096C162.038 29.3893 161.715 29.5893 161.278 29.696L162.654 32H161.566ZM159.59 29.048H160.598C160.939 29.048 161.195 28.9627 161.366 28.792C161.542 28.6213 161.63 28.392 161.63 28.104C161.63 27.816 161.545 27.592 161.374 27.432C161.203 27.2667 160.945 27.184 160.598 27.184H159.59V29.048ZM167.845 27.176V28.808H169.765V29.552H167.845V31.256H170.005V32H166.933V26.432H170.005V27.176H167.845ZM180.184 26.44V32H179.272V28.192L177.576 32H176.944L175.24 28.192V32H174.328V26.44H175.312L177.264 30.8L179.208 26.44H180.184ZM185.495 26.44V32H184.583V26.44H185.495ZM190.804 27.176V28.808H192.724V29.552H190.804V31.256H192.964V32H189.892V26.432H192.964V27.176H190.804ZM200.176 32L198.896 29.776H198.2V32H197.288V26.44H199.208C199.634 26.44 199.994 26.5147 200.288 26.664C200.586 26.8133 200.808 27.0133 200.952 27.264C201.101 27.5147 201.176 27.7947 201.176 28.104C201.176 28.4667 201.069 28.7973 200.856 29.096C200.648 29.3893 200.325 29.5893 199.888 29.696L201.264 32H200.176ZM198.2 29.048H199.208C199.549 29.048 199.805 28.9627 199.976 28.792C200.152 28.6213 200.24 28.392 200.24 28.104C200.24 27.816 200.154 27.592 199.984 27.432C199.813 27.2667 199.554 27.184 199.208 27.184H198.2V29.048ZM206.454 27.176V28.808H208.374V29.552H206.454V31.256H208.614V32H205.542V26.432H208.614V27.176H206.454Z" fill="black"/>
<path d="M5.01957 16.0001H0V0.313965H5.01957L14.5303 9.23031L24.1567 0.313965H29.1763C29.1763 0.313965 29.2313 10.7714 29.1763 16.0001H24.1567L24.2723 6.91866L14.5303 15.5048L5.01957 6.90215V16.0001Z" fill="black"/>
<path d="M57.7251 0.313965H32.6272V4.70609H47.9996L32.6272 12.4054V16.0001L57.7251 15.6864V11.608H42.0389L57.7251 3.76492V0.313965Z" fill="black"/>
<path d="M66.3291 0.313965H61.4897V16.0001H66.3291V0.313965Z" fill="black"/>
<path d="M85.7043 0.313477H105.684V4.77165H86.695C85.8694 4.77165 85.8694 6.25771 86.695 6.25771H101.886C108.391 6.25771 108.078 15.9996 101.886 15.9996H81.9066V11.6075L100.73 11.7066C101.556 11.7066 101.556 10.0554 100.73 10.0554H85.7043C78.9345 10.2205 78.9345 0.313477 85.7043 0.313477Z" fill="black"/>
<path d="M231.077 0H251.057V4.45817H232.068C231.242 4.45817 231.242 5.94423 232.068 5.94423H247.259C253.765 5.94423 253.451 15.6862 247.259 15.6862H227.28V11.294L246.103 11.3931C246.929 11.3931 246.929 9.74193 246.103 9.74193H231.077C224.308 9.90705 224.308 0 231.077 0Z" fill="black"/>
<path d="M196.077 4.71904V0.470703H222.874V4.71904H212.253V15.9935L207.025 15.8301V4.71904H196.077Z" fill="black"/>
<path fill-rule="evenodd" clip-rule="evenodd" d="M109.803 0.313965V16.0001H114.823V11.2943H130.195C136.469 11.2943 136.469 0.313965 130.112 0.313965H109.803ZM114.666 4.7062V6.7454H128.156C129.254 6.7454 129.097 4.7062 128.156 4.7062H114.666Z" fill="black"/>
<path fill-rule="evenodd" clip-rule="evenodd" d="M168.156 0.156738V15.6795H173.058V10.941H181.391L187.927 15.6795H196.097L188.254 10.941C194.463 10.941 194.463 0.156738 188.254 0.156738H168.156ZM173.019 4.39199V6.4312H186.509C187.607 6.4312 187.45 4.39199 186.509 4.39199H173.019Z" fill="black"/>
<path fill-rule="evenodd" clip-rule="evenodd" d="M144.87 0H157.322C167.833 0 167.51 15.6862 157.322 15.6862H144.87C134.197 15.6862 133.874 0 144.87 0ZM144.94 4.23533H155.92C160.312 4.23533 160.312 11.2941 155.92 11.2941H144.94C140.862 11.2941 140.391 4.23533 144.94 4.23533Z" fill="black"/>
</svg>
