<svg width="20" height="23" viewBox="0 0 20 23" fill="none" xmlns="http://www.w3.org/2000/svg">
<path d="M17.2174 20.1004L17.2158 20.101L17.209 20.1031L17.175 20.1138C17.1448 20.1232 17.0997 20.1372 17.0411 20.1553C16.9237 20.1913 16.7519 20.2433 16.5356 20.3069C16.1029 20.434 15.4926 20.6071 14.7838 20.7905C13.3757 21.1547 11.5978 21.5543 10.0532 21.7198C6.80061 21.4264 5.11328 21.101 2.32192 20.1091L2.31232 20.1051C2.29893 20.0995 2.27837 20.0908 2.25166 20.0791C2.19818 20.0556 2.12044 20.0204 2.02661 19.9748C1.83773 19.883 1.58947 19.7518 1.34443 19.5921C1.09602 19.4302 0.870378 19.2515 0.71194 19.0695C0.549782 18.8832 0.5 18.7427 0.5 18.6471V16.9753C0.5 14.3177 2.9129 12.0741 6 12.0741H6.64808C7.67718 12.4846 8.80773 12.7171 10 12.7171C11.1916 12.7171 12.3264 12.4848 13.3523 12.0741H14C17.0871 12.0741 19.5 14.3177 19.5 16.9753V18.6471C19.5 18.705 19.4592 18.8347 19.2475 19.0329C19.0474 19.2203 18.7626 19.404 18.4511 19.5694C18.1442 19.7325 17.8337 19.8662 17.598 19.9596C17.4807 20.0061 17.3833 20.042 17.316 20.0661C17.2824 20.0782 17.2563 20.0872 17.2391 20.0931L17.22 20.0996L17.2174 20.1004ZM15.2143 5.14403C15.2143 7.66102 12.9309 9.78807 10 9.78807C7.06915 9.78807 4.78571 7.66102 4.78571 5.14403C4.78571 2.62705 7.06915 0.5 10 0.5C12.9309 0.5 15.2143 2.62705 15.2143 5.14403Z" stroke="black"/>
</svg>
