<svg width="26" height="28" viewBox="0 0 26 28" fill="none" xmlns="http://www.w3.org/2000/svg">
<path d="M22.9452 15.365C22.9954 14.9275 23.0288 14.4725 23.0288 14C23.0288 13.5275 22.9954 13.0725 22.9285 12.635L25.7533 10.325C26.004 10.115 26.0709 9.73 25.9204 9.4325L23.2461 4.585C23.079 4.27 22.7279 4.165 22.4271 4.27L19.1009 5.67C18.3988 5.11 17.6634 4.655 16.8444 4.305L16.3429 0.595C16.2928 0.245 16.0086 0 15.6744 0H10.3257C9.99136 0 9.72392 0.245 9.67378 0.595L9.17234 4.305C8.35332 4.655 7.60116 5.1275 6.91586 5.67L3.58964 4.27C3.28877 4.1475 2.93776 4.27 2.77062 4.585L0.0962688 9.4325C-0.070878 9.7475 -0.00401906 10.115 0.263416 10.325L3.0882 12.635C3.02134 13.0725 2.97119 13.545 2.97119 14C2.97119 14.455 3.00462 14.9275 3.07148 15.365L0.246701 17.675C-0.00401946 17.885 -0.070878 18.27 0.0795541 18.5675L2.7539 23.415C2.92105 23.73 3.27206 23.835 3.57292 23.73L6.89914 22.33C7.60116 22.89 8.33661 23.345 9.15562 23.695L9.65707 27.405C9.72392 27.755 9.99136 28 10.3257 28H15.6744C16.0086 28 16.2928 27.755 16.3262 27.405L16.8277 23.695C17.6467 23.345 18.3988 22.8725 19.0841 22.33L22.4104 23.73C22.7112 23.8525 23.0622 23.73 23.2294 23.415L25.9037 18.5675C26.0709 18.2525 26.004 17.885 25.7366 17.675L22.9452 15.365ZM13 19.25C10.2421 19.25 7.9856 16.8875 7.9856 14C7.9856 11.1125 10.2421 8.75 13 8.75C15.7579 8.75 18.0144 11.1125 18.0144 14C18.0144 16.8875 15.7579 19.25 13 19.25Z" fill="black"/>
</svg>
